<svg xmlns="http://www.w3.org/2000/svg" xmlns:xlink="http://www.w3.org/1999/xlink" fill="none" version="1.1" width="32" height="32" viewBox="0 0 32 32"><defs><clipPath id="master_svg0_3_416"><rect x="0" y="0" width="32" height="32" rx="0"/></clipPath></defs><g clip-path="url(#master_svg0_3_416)"><g><g><path d="M9.999951190734864,11.049951374534864L22.000000190734863,11.049951374534864Q22.068900190734865,11.049951374534864,22.136500190734864,11.063401690734864Q22.204100190734863,11.076851990734863,22.267800190734864,11.103235690734863Q22.331500190734864,11.129619390734863,22.388800190734862,11.167922190734863Q22.446200190734864,11.206226190734863,22.494900190734864,11.254976190734864Q22.543700190734864,11.303727190734863,22.582000190734863,11.361052190734863Q22.620300190734863,11.418377190734864,22.64670019073486,11.482073190734864Q22.67300019073486,11.545769190734863,22.68650019073486,11.613388190734863Q22.700000190734862,11.681007190734864,22.700000190734862,11.749951190734864Q22.700000190734862,11.818895190734864,22.68650019073486,11.886514190734863Q22.67300019073486,11.954134190734862,22.64670019073486,12.017830190734863Q22.620300190734863,12.081530190734863,22.582000190734863,12.138850190734864Q22.543700190734864,12.196180190734863,22.494900190734864,12.244930190734863Q22.446200190734864,12.293680190734863,22.388800190734862,12.331980190734864Q22.331500190734864,12.370280190734864,22.267800190734864,12.396670190734863Q22.204100190734863,12.423050190734862,22.136500190734864,12.436500190734863Q22.068900190734865,12.449950190734864,22.000000190734863,12.449950190734864L9.999951190734864,12.449950190734864Q9.931007190734864,12.449950190734864,9.863388190734863,12.436500190734863Q9.795769190734863,12.423050190734862,9.732073190734864,12.396670190734863Q9.668377190734864,12.370280190734864,9.611052190734863,12.331980190734864Q9.553727190734863,12.293680190734863,9.504976190734864,12.244930190734863Q9.456226190734863,12.196180190734863,9.417922190734863,12.138850190734864Q9.379619390734863,12.081530190734863,9.353235690734863,12.017830190734863Q9.326851990734863,11.954134190734862,9.313401690734864,11.886514190734863Q9.299951374534864,11.818895190734864,9.299951374534864,11.749951190734864Q9.299951374534864,11.681007190734864,9.313401690734864,11.613388190734863Q9.326851990734863,11.545769190734863,9.353235690734863,11.482073190734864Q9.379619390734863,11.418377190734864,9.417922190734863,11.361052190734863Q9.456226190734863,11.303727190734863,9.504976190734864,11.254976190734864Q9.553727190734863,11.206226190734863,9.611052190734863,11.167922190734863Q9.668377190734864,11.129619390734863,9.732073190734864,11.103235690734863Q9.795769190734863,11.076851990734863,9.863388190734863,11.063401690734864Q9.931007190734864,11.049951374534864,9.999951190734864,11.049951374534864ZM9.999951190734864,15.049950190734863L22.000000190734863,15.049950190734863Q22.068900190734865,15.049950190734863,22.136500190734864,15.063400190734864Q22.204100190734863,15.076850190734863,22.267800190734864,15.103240190734862Q22.331500190734864,15.129620190734864,22.388800190734862,15.167920190734863Q22.446200190734864,15.206230190734864,22.494900190734864,15.254980190734862Q22.543700190734864,15.303730190734864,22.582000190734863,15.361050190734863Q22.620300190734863,15.418380190734863,22.64670019073486,15.482070190734863Q22.67300019073486,15.545770190734864,22.68650019073486,15.613390190734863Q22.700000190734862,15.681010190734863,22.700000190734862,15.749950190734864Q22.700000190734862,15.818900190734864,22.68650019073486,15.886510190734864Q22.67300019073486,15.954130190734864,22.64670019073486,16.017830190734863Q22.620300190734863,16.081530190734863,22.582000190734863,16.138850190734864Q22.543700190734864,16.19617019073486,22.494900190734864,16.244930190734863Q22.446200190734864,16.293680190734865,22.388800190734862,16.331980190734864Q22.331500190734864,16.370280190734864,22.267800190734864,16.396670190734863Q22.204100190734863,16.423050190734862,22.136500190734864,16.43650019073486Q22.068900190734865,16.449950190734864,22.000000190734863,16.449950190734864L9.999951190734864,16.449950190734864Q9.931007190734864,16.449950190734864,9.863388190734863,16.43650019073486Q9.795769190734863,16.423050190734862,9.732073190734864,16.396670190734863Q9.668377190734864,16.370280190734864,9.611052190734863,16.331980190734864Q9.553727190734863,16.293680190734865,9.504976190734864,16.244930190734863Q9.456226190734863,16.19617019073486,9.417922190734863,16.138850190734864Q9.379619390734863,16.081530190734863,9.353235690734863,16.017830190734863Q9.326851990734863,15.954130190734864,9.313401690734864,15.886510190734864Q9.299951374534864,15.818900190734864,9.299951374534864,15.749950190734864Q9.299951374534864,15.681010190734863,9.313401690734864,15.613390190734863Q9.326851990734863,15.545770190734864,9.353235690734863,15.482070190734863Q9.379619390734863,15.418380190734863,9.417922190734863,15.361050190734863Q9.456226190734863,15.303730190734864,9.504976190734864,15.254980190734862Q9.553727190734863,15.206230190734864,9.611052190734863,15.167920190734863Q9.668377190734864,15.129620190734864,9.732073190734864,15.103240190734862Q9.795769190734863,15.076850190734863,9.863388190734863,15.063400190734864Q9.931007190734864,15.049950190734863,9.999951190734864,15.049950190734863ZM9.999951190734864,19.04995019073486L22.000000190734863,19.04995019073486Q22.068900190734865,19.04995019073486,22.136500190734864,19.063400190734864Q22.204100190734863,19.076850190734863,22.267800190734864,19.103240190734866Q22.331500190734864,19.12962019073486,22.388800190734862,19.16792019073486Q22.446200190734864,19.206230190734864,22.494900190734864,19.254980190734862Q22.543700190734864,19.30373019073486,22.582000190734863,19.361050190734865Q22.620300190734863,19.418380190734865,22.64670019073486,19.482070190734863Q22.67300019073486,19.545770190734864,22.68650019073486,19.61339019073486Q22.700000190734862,19.681010190734863,22.700000190734862,19.749950190734864Q22.700000190734862,19.818890190734862,22.68650019073486,19.886510190734864Q22.67300019073486,19.954130190734865,22.64670019073486,20.017830190734863Q22.620300190734863,20.081520190734864,22.582000190734863,20.138850190734864Q22.543700190734864,20.19617019073486,22.494900190734864,20.244930190734863Q22.446200190734864,20.29368019073486,22.388800190734862,20.331980190734864Q22.331500190734864,20.370280190734864,22.267800190734864,20.396670190734863Q22.204100190734863,20.423050190734862,22.136500190734864,20.43650019073486Q22.068900190734865,20.449950190734864,22.000000190734863,20.449950190734864L9.999951190734864,20.449950190734864Q9.931007190734864,20.449950190734864,9.863388190734863,20.43650019073486Q9.795769190734863,20.423050190734862,9.732073190734864,20.396670190734863Q9.668377190734864,20.370280190734864,9.611052190734863,20.331980190734864Q9.553727190734863,20.29368019073486,9.504976190734864,20.244930190734863Q9.456226190734863,20.19617019073486,9.417922190734863,20.138850190734864Q9.379619390734863,20.081520190734864,9.353235690734863,20.017830190734863Q9.326851990734863,19.954130190734865,9.313401690734864,19.886510190734864Q9.299951374534864,19.818890190734862,9.299951374534864,19.749950190734864Q9.299951374534864,19.681010190734863,9.313401690734864,19.61339019073486Q9.326851990734863,19.545770190734864,9.353235690734863,19.482070190734863Q9.379619390734863,19.418380190734865,9.417922190734863,19.361050190734865Q9.456226190734863,19.30373019073486,9.504976190734864,19.254980190734862Q9.553727190734863,19.206230190734864,9.611052190734863,19.16792019073486Q9.668377190734864,19.12962019073486,9.732073190734864,19.103240190734866Q9.795769190734863,19.076850190734863,9.863388190734863,19.063400190734864Q9.931007190734864,19.04995019073486,9.999951190734864,19.04995019073486Z" fill-rule="evenodd" fill="#999999" fill-opacity="1"/></g></g></g></svg>