<svg xmlns="http://www.w3.org/2000/svg" xmlns:xlink="http://www.w3.org/1999/xlink" fill="none" version="1.1" width="32" height="32" viewBox="0 0 32 32"><defs><clipPath id="master_svg0_3_406"><rect x="0" y="0" width="32" height="32" rx="0"/></clipPath></defs><g clip-path="url(#master_svg0_3_406)"><g><path d="M16.21414,21.817999999999998C16.600459999999998,21.817999999999998,16.923560000000002,22.1115,16.960639999999998,22.496000000000002L16.96414,22.567999999999998L16.96414,24.032C16.96421,24.4322,16.65012,24.7619,16.250439999999998,24.7813C15.85075,24.8006,15.506260000000001,24.5028,15.46764,24.1045L15.46414,24.032L15.46414,22.567999999999998C15.46414,22.1538,15.79993,21.817999999999998,16.21414,21.817999999999998ZM21.1841,20.4825L21.2376,20.531L22.2726,21.566000000000003C22.5563,21.8488,22.5676,22.3046,22.2984,22.601100000000002C22.0292,22.8977,21.5745,22.930500000000002,21.2656,22.6755L21.2121,22.627000000000002L20.1771,21.592C19.890700000000002,21.3097,19.8779,20.8518,20.1482,20.5539C20.4184,20.2561,20.8754,20.2244,21.1841,20.4825L21.1841,20.4825ZM12.50164,20.2805C12.774650000000001,20.5536,12.795639999999999,20.9894,12.550139999999999,21.2875L12.50164,21.341L11.46664,22.375999999999998C11.18384,22.659599999999998,10.72809,22.671,10.43151,22.4018C10.13493,22.1326,10.10219,21.6779,10.35714,21.369L10.40564,21.3155L11.44065,20.2805C11.73358,19.9874,12.20871,19.9874,12.50164,20.2805ZM16.28214,11.8065C18.6294,11.8065,20.5321,13.70929,20.5321,16.0565C20.5321,18.4037,18.6294,20.3065,16.28214,20.3065C13.934940000000001,20.3065,12.03215,18.4037,12.03215,16.0565C12.03215,13.70929,13.934940000000001,11.8065,16.28214,11.8065ZM16.28214,13.3065C14.763359999999999,13.3065,13.53215,14.53772,13.53215,16.0565C13.53215,17.57528,14.763359999999999,18.8065,16.28214,18.8065C17.80093,18.8065,19.0321,17.57528,19.0321,16.0565C19.0321,14.53772,17.80093,13.3065,16.28214,13.3065ZM24.0321,15.818C24.4322,15.818200000000001,24.7617,16.13236,24.7809,16.531959999999998C24.8001,16.93155,24.5023,17.27589,24.1041,17.314500000000002L24.0321,17.317999999999998L22.5681,17.317999999999998C22.168100000000003,17.3178,21.8386,17.00364,21.8194,16.604039999999998C21.8002,16.20445,22.098,15.8601,22.4961,15.8215L22.5681,15.818L24.0321,15.818ZM10.21414,15.818C10.6142,15.818200000000001,10.94368,16.13236,10.9629,16.531959999999998C10.98213,16.93155,10.68433,17.27589,10.28614,17.314500000000002L10.21414,17.317999999999998L8.750145,17.317999999999998C8.349989,17.31807,8.0202564,17.00398,8.000892997,16.60429C7.9815292,16.204610000000002,8.279356,15.860109999999999,8.677645,15.8215L8.750145,15.818L10.21414,15.818ZM11.41315,10.711500000000001L11.46664,10.76L12.50164,11.795C12.785260000000001,12.07781,12.796610000000001,12.53356,12.527429999999999,12.83014C12.25825,13.126719999999999,11.80354,13.15946,11.49464,12.904499999999999L11.44114,12.856L10.40615,11.821C10.11974,11.53871,10.10695,11.08076,10.37715,10.78292C10.64735,10.48507,11.104379999999999,10.45335,11.41315,10.711500000000001L11.41315,10.711500000000001ZM22.2726,10.5095C22.5456,10.78262,22.5666,11.218399999999999,22.3211,11.5165L22.2726,11.57L21.2376,12.605C20.9548,12.88862,20.4991,12.89997,20.2025,12.630790000000001C19.905900000000003,12.361609999999999,19.8732,11.90689,20.1281,11.597999999999999L20.1766,11.5445L21.2116,10.5095C21.5046,10.216380000000001,21.9797,10.216380000000001,22.2726,10.5095ZM16.21414,8C16.600459999999998,8.0000185967,16.923560000000002,8.293473,16.960639999999998,8.678L16.96414,8.75L16.96414,10.214C16.96395,10.61406,16.64978,10.94354,16.25019,10.96276C15.85059,10.98199,15.50625,10.684190000000001,15.46764,10.286L15.46414,10.214L15.46414,8.75C15.46414,8.335786,15.79993,8,16.21414,8Z" fill="#CCCCCC" fill-opacity="1" style="mix-blend-mode:passthrough"/></g></g></svg>