<svg xmlns="http://www.w3.org/2000/svg" xmlns:xlink="http://www.w3.org/1999/xlink" fill="none" version="1.1" width="32" height="32" viewBox="0 0 32 32"><defs><clipPath id="master_svg0_3_268"><rect x="0" y="0" width="32" height="32" rx="0"/></clipPath></defs><g clip-path="url(#master_svg0_3_268)"><g><path d="M16,13.98995L21.505000000000003,19.494979999999998Q21.6035,19.593429999999998,21.732100000000003,19.646720000000002Q21.860799999999998,19.7,22,19.7Q22.0689,19.7,22.1366,19.68655Q22.2042,19.673099999999998,22.267899999999997,19.64671Q22.3316,19.62033,22.3889,19.58203Q22.446199999999997,19.54372,22.494999999999997,19.494970000000002Q22.5437,19.44622,22.582,19.3889Q22.6203,19.33157,22.6467,19.267879999999998Q22.673099999999998,19.20418,22.686500000000002,19.13656Q22.7,19.068939999999998,22.7,19Q22.7,18.86076,22.6467,18.732120000000002Q22.593400000000003,18.60348,22.494999999999997,18.505020000000002L16.494979999999998,12.505025Q16.44622,12.456275,16.3889,12.417971Q16.33157,12.379668,16.267879999999998,12.353284Q16.20418,12.326901,16.13656,12.31345Q16.068939999999998,12.3,16,12.3Q15.93106,12.3,15.86344,12.31345Q15.795819999999999,12.326901,15.73212,12.353284Q15.668420000000001,12.379668,15.6111,12.417971Q15.55378,12.456275,15.50502,12.505025L9.505025,18.505020000000002Q9.406569,18.60348,9.353284,18.732120000000002Q9.3,18.86076,9.3,19Q9.3,19.068939999999998,9.31345,19.13656Q9.326901,19.20418,9.353284,19.267879999999998Q9.379668,19.33157,9.417971,19.3889Q9.456275,19.44622,9.505025,19.494970000000002Q9.553776,19.54372,9.611101,19.58203Q9.668426,19.62033,9.732122,19.64671Q9.795818,19.673099999999998,9.863437,19.68655Q9.931056,19.7,10,19.7Q10.139239,19.7,10.267878,19.646720000000002Q10.396518,19.593429999999998,10.494975,19.494970000000002L16,13.98995Z" fill-rule="evenodd" fill="#CCCCCC" fill-opacity="1" style="mix-blend-mode:passthrough"/></g></g></svg>